<svg width="337" height="103" viewBox="0 0 337 103" fill="none" xmlns="http://www.w3.org/2000/svg">
<g clip-path="url(#clip0_13_122)">
<path d="M2.54657 0.827148L28.6963 21.9679C28.8331 22.1152 28.9804 22.2205 29.1172 22.2836C29.4645 22.4309 29.6855 22.4625 29.7486 22.3888L55.2775 0.827148H57.8135V76.5614H55.2775V4.86799L29.3382 26.2192L2.75703 4.86799H2.54657V76.5614H0V0.827148H2.54657Z" fill="white"/>
<path d="M162.497 56.7255H162.286C161.013 56.9359 159.729 57.1674 158.424 57.42C157.119 57.6725 155.793 57.7988 154.457 57.7988V55.2312C158.908 54.9471 162.949 53.8001 166.58 51.8007C170.21 49.8013 173.156 47.1916 175.419 43.9821C177.681 40.7726 179.102 37.1105 179.712 33.0066C180.312 28.9026 179.839 24.6408 178.281 20.2106C176.871 16.4328 174.661 13.1286 171.662 10.3084C168.663 7.48822 165.254 5.54146 161.444 4.46812C161.234 4.46812 160.771 4.36289 160.066 4.1419C159.361 3.93144 158.898 3.82621 158.687 3.82621C158.54 3.82621 158.298 3.79464 157.951 3.72098C157.593 3.64732 157.351 3.61575 157.214 3.61575H134.453V76.5403H131.696V0.827148H155.73C158.487 0.827148 161.223 1.34278 163.938 2.38456C166.653 3.41581 169.073 4.76276 171.189 6.40435C174.367 8.76151 176.892 11.6343 178.755 15.0227C180.628 18.4111 181.785 21.9784 182.248 25.7352C182.711 29.4814 182.438 33.2486 181.449 37.0264C180.459 40.8147 178.692 44.2346 176.155 47.3074C174.672 49.1594 173.009 50.7484 171.178 52.0743C169.337 53.4002 167.369 54.5893 165.243 55.6626V55.8731L180.596 76.5403H177.418L162.486 56.7255H162.497Z" fill="white"/>
<path d="M233.601 0.827148V3.17378H189.341V32.4699H207.661V35.2375H189.341V74.0148H232.327V76.5719H186.794V0.827148H233.601Z" fill="white"/>
<path d="M232.633 0.827148H235.39L260.066 72.5205L284.09 0.827148H286.847L261.539 76.5614H258.572L232.633 0.827148Z" fill="white"/>
<path d="M124.445 0.827148L55.5195 76.5614H58.8974L124.656 5.08898V71.4577V76.5298V97.9231H126.971V76.5298V71.4577V0.827148H124.445Z" fill="white"/>
<path d="M337 74.0043H294.024V35.2375H312.345V32.4594H294.024V3.17378H337V0.827148H291.488V76.5614H337V74.0043Z" fill="white"/>
</g>
<defs>
<clipPath id="clip0_13_122">
<rect width="337" height="102.052" fill="white" transform="translate(0 0.827148)"/>
</clipPath>
</defs>
</svg>
