<svg width="230" height="70" viewBox="0 0 230 70" fill="none" xmlns="http://www.w3.org/2000/svg">
<g clip-path="url(#clip0_13_207)">
<path d="M1.7308 0L19.5037 14.3685C19.5966 14.4686 19.6968 14.5401 19.7897 14.583C20.0258 14.6832 20.1759 14.7046 20.2189 14.6546L37.5697 0H39.2934V51.4733H37.5697V2.74639L19.9399 17.2579L1.87384 2.74639H1.7308V51.4733H0V0H1.7308Z" fill="#ED7745"/>
<path d="M110.442 37.9917H110.299C109.434 38.1348 108.561 38.2921 107.674 38.4637C106.787 38.6354 105.886 38.7212 104.978 38.7212V36.9761C108.003 36.783 110.75 36.0034 113.217 34.6445C115.684 33.2857 117.687 31.5119 119.225 29.3306C120.762 27.1492 121.728 24.6603 122.143 21.871C122.55 19.0817 122.229 16.1851 121.17 13.1741C120.212 10.6065 118.71 8.36075 116.671 6.444C114.633 4.52725 112.316 3.20412 109.727 2.47461C109.584 2.47461 109.269 2.40309 108.79 2.2529C108.311 2.10986 107.996 2.03834 107.853 2.03834C107.753 2.03834 107.588 2.01688 107.352 1.96681C107.109 1.91675 106.945 1.89529 106.852 1.89529H91.3818V51.459H89.508V0H105.843C107.717 0 109.577 0.350451 111.422 1.0585C113.267 1.75941 114.912 2.67487 116.35 3.79059C118.51 5.39265 120.226 7.34516 121.492 9.64812C122.765 11.9511 123.552 14.3756 123.866 16.9289C124.181 19.475 123.995 22.0355 123.323 24.6031C122.651 27.1778 121.449 29.5022 119.725 31.5906C118.717 32.8494 117.587 33.9293 116.342 34.8305C115.091 35.7317 113.753 36.5398 112.309 37.2694V37.4124L122.744 51.459H120.584L110.435 37.9917H110.442Z" fill="#ED7745"/>
<path d="M158.768 0V1.59491H128.687V21.5062H141.139V23.3872H128.687V49.7425H157.903V51.4805H126.956V0H158.768Z" fill="#ED7745"/>
<path d="M158.11 0H159.984L176.756 48.7269L193.084 0H194.958L177.757 51.4733H175.74L158.11 0Z" fill="#ED7745"/>
<path d="M84.5802 0L37.7342 51.4733H40.03L84.7232 2.89658V48.0046V51.4519V65.992H86.2967V51.4519V48.0046V0H84.5802Z" fill="#ED7745"/>
<path d="M229.045 49.7354H199.836V23.3872H212.287V21.4991H199.836V1.59491H229.045V0H198.112V51.4733H229.045V49.7354Z" fill="#ED7745"/>
</g>
<defs>
<clipPath id="clip0_13_207">
<rect width="229.045" height="69.3606" fill="white"/>
</clipPath>
</defs>
</svg>
